<svg xmlns="http://www.w3.org/2000/svg" width="46" height="46" viewBox="0 0 46 46"><path fill="#353535" d="M46 11.5h-3.07V2.29A2.29 2.29 0 0 0 40.64 0h-3.08a2.29 2.29 0 0 0-2.29 2.29v9.21H0v25.3h35.27v1.74l3.06 5.36v1.33a.77.77 0 0 0 1.54 0V43.9l3.06-5.36V36.8H46zm-4.6-3.07h-4.6V6.9h4.6zm-4.6-6.14c0-.42.34-.76.76-.76h3.08c.42 0 .76.34.76.76v3.08h-4.6zM1.53 35.27V13.03h33.74v22.24zm37.57 6.88l-1.75-3.05h3.5zm2.3-4.58h-4.6V9.97h4.6zm3.07-2.3h-1.54V13.03h1.54z"/><path fill="#353535" d="M30.07 20h-2.3a.76.76 0 1 0 0 1.53h2.3c.42 0 .76-.34.76-.76a.76.76 0 0 0-.76-.77zM15.77 18.53h2.3c.42 0 .76-.34.76-.76a.76.76 0 0 0-.76-.77h-2.3a.76.76 0 1 0 0 1.53zM30.13 17h-5.36a.76.76 0 1 0 0 1.53h5.36a.76.76 0 1 0 0-1.53zM21.77 18.52c.2 0 .4-.08.54-.22a.77.77 0 0 0 .22-.54c0-.2-.08-.4-.22-.55a.81.81 0 0 0-1.09 0 .82.82 0 0 0-.22.55c0 .2.08.4.22.54a.8.8 0 0 0 .55.22zM18 20.77c0 .42.34.76.77.76h5.36a.76.76 0 1 0 0-1.53h-5.36a.76.76 0 0 0-.77.77zM15.77 21.52c.2 0 .4-.08.54-.22a.77.77 0 0 0 .22-.54.8.8 0 0 0-.22-.55.81.81 0 0 0-1.09 0 .8.8 0 0 0-.22.55c0 .2.08.4.22.54a.8.8 0 0 0 .55.22zM8.6 17.61v-.84a.76.76 0 1 0-1.53 0v.84c-.84.17-1.6.62-2.16 1.28a2.63 2.63 0 0 0-.61 2 2.8 2.8 0 0 0 1.06 1.91l1.71 1.33v4.17a2.3 2.3 0 0 1-1.54-2.16.76.76 0 1 0-1.53 0c0 1.85 1.32 3.4 3.07 3.75v.68c0 .42.34.76.76.76.43 0 .77-.34.77-.76v-.68c.84-.17 1.6-.61 2.16-1.28.47-.55.69-1.26.61-2a2.8 2.8 0 0 0-1.06-1.9L8.6 23.38v-4.17a2.3 2.3 0 0 1 1.53 2.16c0 .42.35.76.77.76.42 0 .77-.34.77-.76 0-1.85-1.32-3.4-3.07-3.76zm.77 8.31c.27.2.44.52.47.85.04.32-.05.62-.25.85-.27.32-.61.54-.99.67v-2.97zM6.3 21.59a1.27 1.27 0 0 1-.48-.86c-.03-.31.06-.62.26-.85.26-.31.61-.53.99-.67v2.97zM18.74 26.09c-1.68.88-2.24 2.55-2.45 4.28l-.95-.79c-.75-.63-1.84.45-1.08 1.08l2.15 1.8c.5.43 1.28.16 1.31-.54.05-1.66.13-3.63 1.8-4.5.87-.46.1-1.78-.78-1.33z"/><path fill="#353535" d="M23.43 28.31c-1.06.25-2.27 1.6-3.02.08-.44-.88-1.76-.11-1.32.77a2.62 2.62 0 0 0 3.34 1.31c.31-.12 1.48-1 1.74-.55.48.86 1.8.09 1.32-.77-.41-.74-1.25-1.03-2.06-.84z"/></svg>