<svg xmlns="http://www.w3.org/2000/svg" width="116" height="30" viewBox="0 0 116 30"><path fill="#139ad6" d="M83.49 8c-.37 0-.73.37-.92.74L80 24.91c0 .36.18.55.55.55h3.31c.37 0 .55-.19.55-.55l.74-4.6c0-.37.36-.73.91-.73h2.03c4.22 0 6.61-2.02 7.16-6.07.37-1.65 0-3.12-.73-4.04A7.43 7.43 0 0 0 89.74 8zm3.31 8.27h-1.1l.73-4.23c0-.18.19-.36.55-.36h.37c1.1 0 2.21 0 2.76.73.36.18.36.74.36 1.65-.36 2.21-2.02 2.21-3.67 2.21z"/><path fill="#263b80" d="M38.49 8c-.37 0-.73.37-.92.74L35 24.91c0 .36.18.55.55.55h2.94c.37 0 .74-.37.92-.74l.74-4.41c0-.37.36-.73.91-.73h2.03c4.22 0 6.61-2.02 7.16-6.07.37-1.65 0-3.12-.73-4.04C48.41 8.55 46.94 8 44.74 8zm3.31 8.27h-.92l.74-4.23c0-.18.18-.36.55-.36h.36c1.11 0 2.21 0 2.76.73.18.18.37.74.18 1.65-.36 2.21-2.02 2.21-3.67 2.21zM60.32 13.37c-.18 0-.55.18-.55.37l-.18.91-.18-.36c-.74-.92-2.03-1.29-3.5-1.29a7.05 7.05 0 0 0-6.79 6.06 5.47 5.47 0 0 0 1.1 4.6c.92 1.1 2.2 1.47 3.86 1.47 2.75 0 4.22-1.66 4.22-1.66l-.18.92c0 .37.18.55.55.55h2.76c.36 0 .73-.36.92-.73L64 13.92c-.18-.18-.55-.55-.74-.55zm-4.77 8.82a2.9 2.9 0 0 1-2.02-.74 3.87 3.87 0 0 1-.56-2.2 3.37 3.37 0 0 1 3.31-2.94c.92 0 1.47.37 2.02.73.55.55.74 1.47.74 2.21-.37 1.65-1.66 2.94-3.49 2.94z"/><path fill="#139ad6" d="M105.32 13.37c-.18 0-.55.18-.55.37l-.18.91-.18-.36c-.74-.92-2.03-1.29-3.5-1.29a7.05 7.05 0 0 0-6.79 6.06 5.47 5.47 0 0 0 1.1 4.6c.92 1.1 2.2 1.47 3.86 1.47 2.75 0 4.22-1.66 4.22-1.66l-.18.92c0 .37.18.55.55.55h2.76c.36 0 .73-.36.92-.73L109 13.92c-.18-.18-.37-.55-.74-.55zm-4.77 8.82a2.9 2.9 0 0 1-2.02-.74 3.87 3.87 0 0 1-.56-2.2 3.37 3.37 0 0 1 3.31-2.94c.92 0 1.47.37 2.02.73.74.55.92 1.47.74 2.21-.37 1.65-1.66 2.94-3.49 2.94z"/><path fill="#263b80" d="M79.15 14h-3.12c-.37 0-.56.18-.74.37l-4.04 6.25-1.84-5.88c-.18-.37-.37-.56-.92-.56h-2.94c-.37 0-.55.37-.55.74l3.31 9.74-3.13 4.41c-.18.37 0 .92.37.92h2.94c.37 0 .55-.19.74-.37l10.1-14.52c.55-.55.19-1.1-.18-1.1"/><path fill="#139ad6" d="M111.57 8.44L109 24.98c0 .37.18.55.55.55h2.57c.37 0 .74-.37.92-.74l2.58-16.17c0-.36-.19-.55-.56-.55h-2.94c-.18-.18-.36 0-.55.37"/><path fill="#263b80" d="M21.13 2.21C19.85.74 17.46 0 14.15 0H4.96c-.55 0-1.1.55-1.28 1.1L0 25.17c0 .56.37.92.74.92h5.69l1.47-9v.37c.19-.55.74-1.11 1.29-1.11h2.75c5.33 0 9.38-2.2 10.66-8.26v-.56c-.18 0-.18 0 0 0 .19-2.38-.18-3.85-1.47-5.32"/><path fill="#139ad6" d="M22.54 8v.55c-1.29 6.25-5.33 8.27-10.66 8.27H9.12c-.55 0-1.1.55-1.28 1.1L6 29.13c0 .37.18.74.74.74h4.77c.55 0 1.11-.37 1.11-.92v-.19l.91-5.69v-.37c0-.55.56-.92 1.11-.92h.73c4.6 0 8.27-1.84 9.19-7.35.37-2.2.18-4.22-.92-5.51a1.85 1.85 0 0 0-1.1-.92"/><path fill="#232c65" d="M21.23 7.55c-.18 0-.37-.18-.55-.18-.18 0-.37 0-.55-.19C19.39 7 18.66 7 17.74 7h-7.17c-.18 0-.36 0-.55.18-.37.19-.55.56-.55.92L8 17.66v.37c.18-.56.74-1.11 1.29-1.11h2.75c5.33 0 9.37-2.2 10.66-8.27 0-.18 0-.36.18-.55-.36-.18-.55-.36-.91-.36-.56-.19-.56-.19-.74-.19"/></svg>