<svg xmlns="http://www.w3.org/2000/svg" width="44" height="42" viewBox="0 0 44 42"><path fill="#b1b7bc" d="M43.5 12.01H0V1.53C0 .69.69 0 1.53 0h40.44c.84 0 1.53.69 1.53 1.53z"/><path fill="#e7eced" d="M2 42V12h39v30z"/><path fill="#424a60" d="M28.5 9H15a3 3 0 1 1 0-6h13.5a3 3 0 1 1 0 6z"/><path fill="#57abc1" d="M2 42v-4h39v4z"/><path fill="#fff" d="M11 29V18h21v11z"/><path fill="#c7cac7" d="M14.75 22.5h4.5c.41 0 .75-.34.75-.75a.76.76 0 0 0-.75-.75h-4.5a.76.76 0 0 0-.75.75c0 .41.34.75.75.75zM21.75 22.49a.75.75 0 0 0 .53-1.28.77.77 0 0 0-1.06 0 .75.75 0 0 0 .53 1.28zM29.75 24h-12a.76.76 0 0 0-.75.75c0 .41.34.75.75.75h12c.41 0 .75-.34.75-.75a.76.76 0 0 0-.75-.75zM14.22 24.21a.75.75 0 1 0 1.06 0 .77.77 0 0 0-1.06 0z"/><path fill="#d7d7e2" d="M2 16v-4h39v4z"/></svg>